name C:\Users\u0101727\Documents\MyRepositories\upper-imu-dc\Results\main_tracking\Case_42\FLX01_angularVelocities_bodyFrame.mot
datacolumns 4
datarows 129
range 0.51000000 1.79000000
endheader 
time	radius_imu_x	radius_imu_y	radius_imu_z	
          0.51000000	          0.15499765	         -3.80878929	         -0.72953345	
          0.52000000	          0.13793621	         -3.84283803	         -0.78329548	
          0.53000000	          0.11707895	         -3.85589532	         -0.81970673	
          0.54000000	          0.09456865	         -3.86333394	         -0.84317406	
          0.55000000	          0.07129791	         -3.86472757	         -0.85803392	
          0.56000000	          0.04785428	         -3.86222582	         -0.86738850	
          0.57000000	          0.02452568	         -3.85749377	         -0.87354899	
          0.58000000	          0.00143581	         -3.85238544	         -0.87820624	
          0.59000000	         -0.02139351	         -3.84884220	         -0.88258683	
          0.60000000	         -0.04399712	         -3.84879888	         -0.88756981	
          0.61000000	         -0.06644483	         -3.85413977	         -0.89375921	
          0.62000000	         -0.08883118	         -3.86648351	         -0.90156163	
          0.63000000	         -0.11127136	         -3.88704347	         -0.91123318	
          0.64000000	         -0.13390209	         -3.91654466	         -0.92291991	
          0.65000000	         -0.15687527	         -3.95511635	         -0.93669275	
          0.66000000	         -0.18035006	         -4.00235872	         -0.95257026	
          0.67000000	         -0.20448302	         -4.05739230	         -0.97053888	
          0.68000000	         -0.22942145	         -4.11893923	         -0.99056723	
          0.69000000	         -0.25530026	         -4.18537509	         -1.01261868	
          0.70000000	         -0.28224123	         -4.25477231	         -1.03666172	
          0.71000000	         -0.31035162	         -4.32495476	         -1.06267818	
          0.72000000	         -0.33972005	         -4.39358755	         -1.09066830	
          0.73000000	         -0.37040919	         -4.45830860	         -1.12065217	
          0.74000000	         -0.40244704	         -4.51688679	         -1.15266769	
          0.75000000	         -0.43581897	         -4.56738042	         -1.18676604	
          0.76000000	         -0.47046274	         -4.60827408	         -1.22300539	
          0.77000000	         -0.50626761	         -4.63858104	         -1.26144308	
          0.78000000	         -0.54307820	         -4.65790325	         -1.30212670	
          0.79000000	         -0.58070253	         -4.66644333	         -1.34508467	
          0.80000000	         -0.61892308	         -4.66496867	         -1.39031728	
          0.81000000	         -0.65750923	         -4.65473688	         -1.43778870	
          0.82000000	         -0.69622977	         -4.63739655	         -1.48741995	
          0.83000000	         -0.73486471	         -4.61487670	         -1.53908279	
          0.84000000	         -0.77321610	         -4.58927392	         -1.59259451	
          0.85000000	         -0.81111817	         -4.56274260	         -1.64771462	
          0.86000000	         -0.84844654	         -4.53739135	         -1.70414416	
          0.87000000	         -0.88512607	         -4.51518668	         -1.76152917	
          0.88000000	         -0.92113691	         -4.49786626	         -1.81946871	
          0.89000000	         -0.95651632	         -4.48686319	         -1.87752814	
          0.90000000	         -0.99136342	         -4.48325047	         -1.93525460	
          0.91000000	         -1.02581110	         -4.48766102	         -1.99220210	
          0.92000000	         -1.06014483	         -4.50051276	         -2.04795021	
          0.93000000	         -1.09513111	         -4.52242377	         -2.10211679	
          0.94000000	         -1.13159279	         -4.55306772	         -2.15440059	
          0.95000000	         -1.17002004	         -4.59048438	         -2.20451290	
          0.96000000	         -1.21048917	         -4.63125658	         -2.25214345	
          0.97000000	         -1.25308021	         -4.67160528	         -2.29698069	
          0.98000000	         -1.29811422	         -4.70791297	         -2.33879420	
          0.99000000	         -1.34582098	         -4.73636760	         -2.37746268	
          1.00000000	         -1.39627600	         -4.75312284	         -2.41295547	
          1.01000000	         -1.44939169	         -4.75460360	         -2.44531231	
          1.02000000	         -1.50491018	         -4.73778406	         -2.47462291	
          1.03000000	         -1.56241031	         -4.70038945	         -2.50100997	
          1.04000000	         -1.62132522	         -4.64099367	         -2.52461766	
          1.05000000	         -1.68096818	         -4.55903072	         -2.54560324	
          1.06000000	         -1.74056244	         -4.45475508	         -2.56412852	
          1.07000000	         -1.79927336	         -4.32916930	         -2.58034983	
          1.08000000	         -1.85624185	         -4.18391608	         -2.59440739	
          1.09000000	         -1.91061810	         -4.02113333	         -2.60641589	
          1.10000000	         -1.96159379	         -3.84328802	         -2.61645737	
          1.11000000	         -2.00842994	         -3.65301530	         -2.62457696	
          1.12000000	         -2.05047884	         -3.45298436	         -2.63078172	
          1.13000000	         -2.08719908	         -3.24580136	         -2.63504205	
          1.14000000	         -2.11816406	         -3.03394874	         -2.63729511	
          1.15000000	         -2.14306496	         -2.81975342	         -2.63744914	
          1.16000000	         -2.16170939	         -2.60537149	         -2.63538834	
          1.17000000	         -2.17401723	         -2.39277503	         -2.63097793	
          1.18000000	         -2.18001461	         -2.18373161	         -2.62406915	
          1.19000000	         -2.17982599	         -1.97977644	         -2.61450443	
          1.20000000	         -2.17366406	         -1.78218385	         -2.60212273	
          1.21000000	         -2.16181756	         -1.59194559	         -2.58676521	
          1.22000000	         -2.14463741	         -1.40976320	         -2.56828100	
          1.23000000	         -2.12252198	         -1.23606008	         -2.54653296	
          1.24000000	         -2.09590183	         -1.07101722	         -2.52140291	
          1.25000000	         -2.06522507	         -0.91463155	         -2.49279580	
          1.26000000	         -2.03094427	         -0.76678939	         -2.46064203	
          1.27000000	         -1.99350608	         -0.62734075	         -2.42489771	
          1.28000000	         -1.95334443	         -0.49615882	         -2.38554343	
          1.29000000	         -1.91087705	         -0.37317215	         -2.34258218	
          1.30000000	         -1.86650461	         -0.25836689	         -2.29603765	
          1.31000000	         -1.82061135	         -0.15176829	         -2.24595314	
          1.32000000	         -1.77356644	         -0.05341405	         -2.19239114	
          1.33000000	         -1.72572580	          0.03667300	         -2.13543361	
          1.34000000	         -1.67743382	          0.11851059	         -2.07518253	
          1.35000000	         -1.62902424	          0.19217822	         -2.01176057	
          1.36000000	         -1.58082036	          0.25783528	         -1.94531128	
          1.37000000	         -1.53313466	          0.31573116	         -1.87599903	
          1.38000000	         -1.48627308	          0.36624546	         -1.80400780	
          1.39000000	         -1.44053770	          0.40979614	         -1.72953691	
          1.40000000	         -1.39633990	          0.44707489	         -1.65273057	
          1.41000000	         -1.35097797	          0.48247978	         -1.57555689	
          1.42000000	         -1.31251757	          0.50833408	         -1.49438203	
          1.43000000	         -1.27609462	          0.53301865	         -1.41221913	
          1.44000000	         -1.24125283	          0.55628328	         -1.32934526	
          1.45000000	         -1.21385229	          0.57762375	         -1.24446444	
          1.46000000	         -1.17872193	          0.61533770	         -1.16209823	
          1.47000000	         -1.15117933	          0.64136692	         -1.07734049	
          1.48000000	         -1.12653472	          0.66274135	         -0.99174467	
          1.49000000	         -1.10520980	          0.68008965	         -0.90549049	
          1.50000000	         -1.08692027	          0.70280698	         -0.81894797	
          1.51000000	         -1.07558738	          0.72532364	         -0.73488271	
          1.52000000	         -1.06497697	          0.76077252	         -0.64876153	
          1.53000000	         -1.05752218	          0.77718138	         -0.56266307	
          1.54000000	         -1.05326732	          0.78569146	         -0.47618947	
          1.55000000	         -1.05234526	          0.78723253	         -0.38970027	
          1.56000000	         -1.05524284	          0.78634888	         -0.30371193	
          1.57000000	         -1.05958911	          0.78929710	         -0.21874682	
          1.58000000	         -1.08491600	          0.78752718	         -0.13947499	
          1.59000000	         -1.10410019	          0.78362168	         -0.06041244	
          1.60000000	         -1.12546511	          0.77271190	          0.01597045	
          1.61000000	         -1.14837713	          0.75887966	          0.08930788	
          1.62000000	         -1.17198744	          0.74224746	          0.15919680	
          1.63000000	         -1.19583976	          0.72413772	          0.22533654	
          1.64000000	         -1.21955988	          0.70544120	          0.28749169	
          1.65000000	         -1.24288155	          0.68684953	          0.34547988	
          1.66000000	         -1.26559621	          0.66871110	          0.39916302	
          1.67000000	         -1.28753609	          0.65105341	          0.44844133	
          1.68000000	         -1.30855614	          0.63360529	          0.49325061	
          1.69000000	         -1.32852195	          0.61585340	          0.53356149	
          1.70000000	         -1.34730223	          0.59712441	          0.56937907	
          1.71000000	         -1.36476639	          0.57668557	          0.60074211	
          1.72000000	         -1.38078638	          0.55384439	          0.62772103	
          1.73000000	         -1.39524256	          0.52803482	          0.65041434	
          1.74000000	         -1.40803316	          0.49888710	          0.66894325	
          1.75000000	         -1.41908609	          0.46628109	          0.68344469	
          1.76000000	         -1.42837029	          0.43037937	          0.69406365	
          1.77000000	         -1.43590407	          0.39163544	          0.70094597	
          1.78000000	         -1.44175809	          0.35077330	          0.70423276	
          1.79000000	         -1.44605112	          0.30873545	          0.70405751	
